<?xml version="1.0" encoding="UTF-8" standalone="no"?>
<!-- Created with Inkscape (http://www.inkscape.org/) -->

<svg
   xmlns:dc="http://purl.org/dc/elements/1.1/"
   xmlns:cc="http://creativecommons.org/ns#"
   xmlns:rdf="http://www.w3.org/1999/02/22-rdf-syntax-ns#"
   xmlns:svg="http://www.w3.org/2000/svg"
   xmlns="http://www.w3.org/2000/svg"
   xmlns:sodipodi="http://sodipodi.sourceforge.net/DTD/sodipodi-0.dtd"
   xmlns:inkscape="http://www.inkscape.org/namespaces/inkscape"
   width="200.26262"
   height="13.635495"
   id="svg2"
   version="1.1"
   inkscape:version="0.91 r13725"
   sodipodi:docname="phone_icon.svg">
  <defs
     id="defs4" />
  <sodipodi:namedview
     id="base"
     pagecolor="#ffffff"
     bordercolor="#666666"
     borderopacity="1.0"
     inkscape:pageopacity="0.0"
     inkscape:pageshadow="2"
     inkscape:zoom="2.8"
     inkscape:cx="87.674767"
     inkscape:cy="-29.755468"
     inkscape:document-units="px"
     inkscape:current-layer="layer1"
     showgrid="false"
     showguides="false"
     inkscape:guide-bbox="true"
     inkscape:window-width="1600"
     inkscape:window-height="847"
     inkscape:window-x="-32000"
     inkscape:window-y="-32000"
     inkscape:window-maximized="0"
     fit-margin-top="0"
     fit-margin-left="0"
     fit-margin-right="0"
     fit-margin-bottom="0">
    <sodipodi:guide
       orientation="0,1"
       position="-230.88975,482.2924"
       id="guide3780" />
    <sodipodi:guide
       orientation="0,1"
       position="-196.03949,255.51315"
       id="guide3782" />
    <sodipodi:guide
       orientation="0,1"
       position="47.40727,15.854465"
       id="guide3805" />
    <sodipodi:guide
       orientation="0,1"
       position="47.40727,-1.3181255"
       id="guide3807" />
    <sodipodi:guide
       orientation="1,0"
       position="-2.34274,-51.320675"
       id="guide3813" />
    <sodipodi:guide
       orientation="1,0"
       position="202.46569,-90.969165"
       id="guide3815" />
  </sodipodi:namedview>
  <metadata
     id="metadata7">
    <rdf:RDF>
      <cc:Work
         rdf:about="">
        <dc:format>image/svg+xml</dc:format>
        <dc:type
           rdf:resource="http://purl.org/dc/dcmitype/StillImage" />
        <dc:title />
      </cc:Work>
    </rdf:RDF>
  </metadata>
  <g
     inkscape:label="Layer 1"
     inkscape:groupmode="layer"
     id="layer1"
     transform="translate(-481.91266,-575.01123)">
    <text
       xml:space="preserve"
       style="font-style:normal;font-weight:normal;font-size:11.014328px;line-height:125%;font-family:sans-serif;letter-spacing:0px;word-spacing:0px;fill:#666663;fill-opacity:1;stroke:none"
       x="538.76642"
       y="544.37158"
       id="text3801"
       sodipodi:linespacing="125%"
       transform="scale(0.92901741,1.0764061)"><tspan
         sodipodi:role="line"
         id="tspan3803"
         x="538.76642"
         y="544.37158">MÜŞTERİ HİZMETLERİ 1-800-445-0380</tspan></text>
    <path
       inkscape:connector-curvature="0"
       style="fill:#666663;fill-opacity:1"
       d="m 488.00674,586.09287 c 0.37174,-0.11618 0.93854,-0.54802 1.51661,-1.15546 1.17857,-1.23848 2.24373,-3.27731 2.51005,-4.80453 0.14772,-0.84707 0.0957,-1.22623 -0.217,-1.5824 -0.22109,-0.2518 -0.57838,-0.47916 -0.64262,-0.40893 -0.10483,0.1146 -1.1311,1.93424 -1.1311,2.0055 0,0.042 0.0522,0.12366 0.11598,0.18139 0.0638,0.0577 0.14662,0.2422 0.18405,0.40995 0.20829,0.93332 -0.6471,2.55642 -1.58706,3.01145 -0.18679,0.0904 -0.34186,0.11893 -0.5668,0.10421 l -0.30967,-0.0203 -0.57486,0.97961 c -0.56738,0.96687 -0.57331,0.98095 -0.45597,1.08296 0.12172,0.10582 0.6483,0.28571 0.81546,0.27858 0.0512,-0.002 0.20553,-0.0391 0.34293,-0.0821 z"
       id="path3002" />
    <path
       inkscape:connector-curvature="0"
       style="fill:#666663;fill-opacity:1"
       d="m 486.43262,585.60004 c 0.0991,-0.11528 1.23579,-2.09285 1.23434,-2.14744 -0.004,-0.14039 -0.63237,-0.53906 -0.85004,-0.53906 -0.11005,0 -0.23639,0.17803 -0.72467,1.02126 -0.32527,0.5617 -0.61184,1.07276 -0.63683,1.13569 -0.0589,0.14836 0.0263,0.24674 0.39874,0.46039 0.3478,0.19949 0.45539,0.21235 0.57846,0.0692 z"
       id="path3000" />
    <path
       inkscape:connector-curvature="0"
       style="fill:#666663;fill-opacity:1"
       d="m 489.73174,579.9005 c 0.32547,-0.47138 1.20137,-2.08341 1.17267,-2.15821 -0.0622,-0.16214 -0.6952,-0.49753 -0.89827,-0.47596 -0.0364,0.004 -0.35441,0.50521 -0.70665,1.11408 -0.49909,0.86273 -0.62719,1.12806 -0.58046,1.20225 0.0782,0.1241 0.67127,0.48054 0.80012,0.48086 0.0549,1.2e-4 0.15058,-0.0732 0.21259,-0.16302 z"
       id="path2996" />
    <path
       sodipodi:type="arc"
       style="fill:none;stroke:#666663;stroke-width:14.66292191;stroke-miterlimit:4;stroke-opacity:1;stroke-dasharray:none"
       id="path3010"
       sodipodi:cx="537.14862"
       sodipodi:cy="228.33025"
       sodipodi:rx="109.85409"
       sodipodi:ry="107.83379"
       d="M 647.00271,228.33025 A 109.85409,107.83379 0 0 1 537.14862,336.16404 109.85409,107.83379 0 0 1 427.29453,228.33025 109.85409,107.83379 0 0 1 537.14862,120.49645 109.85409,107.83379 0 0 1 647.00271,228.33025 Z"
       transform="matrix(-0.05919969,0,0,0.05919969,520.64904,568.3119)" />
  </g>
</svg>
